<svg width="30" height="26" viewBox="0 0 30 26" fill="none" xmlns="http://www.w3.org/2000/svg">
<path fill-rule="evenodd" clip-rule="evenodd" d="M28.8924 0.0544193L0.521458 10.95C0.367287 11.0093 0.23486 11.1138 0.141735 11.2498C0.0486096 11.3857 -0.000816182 11.5466 1.01957e-05 11.7111C0.000836573 11.8757 0.0518761 12.0361 0.146362 12.1711C0.240848 12.3061 0.374318 12.4093 0.529077 12.4671L7.44179 15.0366L10.1181 23.6082C10.1586 23.7342 10.2295 23.8484 10.3246 23.9409C10.4196 24.0333 10.536 24.1012 10.6634 24.1386C10.7909 24.1761 10.9256 24.1818 11.0559 24.1555C11.1861 24.1291 11.3079 24.0715 11.4106 23.9875L15.2641 20.8585C15.4605 20.6988 15.7045 20.6084 15.9579 20.6014C16.2114 20.5944 16.4601 20.6711 16.6651 20.8196L23.6178 25.845C23.7279 25.9246 23.8563 25.9755 23.9912 25.9931C24.1261 26.0107 24.2634 25.9944 24.3903 25.9457C24.5173 25.8969 24.63 25.8173 24.7182 25.7141C24.8063 25.6109 24.8671 25.4874 24.895 25.3548L29.9829 0.976052C30.0127 0.833351 30.0034 0.685274 29.9559 0.54741C29.9083 0.409546 29.8243 0.286996 29.7127 0.192662C29.6011 0.098328 29.466 0.0357 29.3216 0.0113715C29.1772 -0.012957 29.0289 0.00191414 28.8924 0.0544193ZM23.4816 5.75584L12.3316 16.0739C11.9412 16.437 11.6895 16.9236 11.6191 17.4507L11.2382 20.2535C11.2271 20.3324 11.1891 20.4051 11.1306 20.4595C11.0721 20.5139 10.9967 20.5467 10.9168 20.5523C10.837 20.558 10.7577 20.5362 10.692 20.4906C10.6264 20.445 10.5785 20.3784 10.5562 20.3019L9.09235 15.1921C9.01151 14.9085 9.0258 14.6064 9.13305 14.3316C9.24031 14.0567 9.43467 13.8242 9.68666 13.6694L23.1978 5.3851C23.2475 5.35457 23.3068 5.34353 23.3642 5.35412C23.4216 5.36472 23.473 5.3962 23.5084 5.44244C23.5438 5.48867 23.5607 5.54636 23.5557 5.60429C23.5508 5.66221 23.5244 5.71623 23.4816 5.75584Z" fill="white"/>
</svg>
