<svg width="31" height="25" viewBox="0 0 31 25" fill="none" xmlns="http://www.w3.org/2000/svg">
<path d="M30.3194 2.89392C29.8464 3.09891 29.3601 3.2719 28.8633 3.41235C29.4515 2.7623 29.9 1.99742 30.1738 1.16042C30.2352 0.972803 30.1716 0.767443 30.0138 0.64474C29.8561 0.521941 29.6371 0.507232 29.4636 0.607729C28.4084 1.21925 27.2699 1.65873 26.0762 1.91571C24.8738 0.767633 23.2406 0.114258 21.5523 0.114258C17.9885 0.114258 15.0891 2.94726 15.0891 6.42946C15.0891 6.70371 15.1069 6.97645 15.142 7.24539C10.7197 6.86599 6.6083 4.74207 3.78503 1.35809C3.68441 1.23747 3.52941 1.17247 3.37072 1.1849C3.21192 1.19705 3.06926 1.28454 2.98904 1.41901C2.41642 2.3791 2.1137 3.47717 2.1137 4.59441C2.1137 6.1161 2.66971 7.55989 3.65188 8.68804C3.35323 8.58697 3.06343 8.46066 2.78683 8.31063C2.63834 8.22987 2.45711 8.2311 2.30959 8.31376C2.16196 8.39641 2.06941 8.54844 2.06552 8.71461C2.06484 8.7426 2.06484 8.7706 2.06484 8.79897C2.06484 11.0704 3.31594 13.1153 5.22871 14.2299C5.06439 14.2139 4.90016 14.1906 4.737 14.1602C4.56878 14.1287 4.39581 14.1864 4.28238 14.3117C4.16875 14.437 4.13116 14.6116 4.18351 14.771C4.89151 16.9309 6.71435 18.5196 8.918 19.004C7.0903 20.1225 5.00019 20.7084 2.80606 20.7084C2.34824 20.7084 1.88779 20.6821 1.43716 20.63C1.2133 20.604 0.999247 20.7332 0.923008 20.9412C0.846769 21.1493 0.927573 21.3814 1.11802 21.5006C3.93673 23.2666 7.19597 24.2 10.5432 24.2C17.1234 24.2 21.2399 21.168 23.5343 18.6245C26.3955 15.4529 28.0364 11.2548 28.0364 7.10694C28.0364 6.93365 28.0337 6.75866 28.0282 6.58424C29.1571 5.75321 30.1289 4.74748 30.9198 3.59152C31.0399 3.41596 31.0269 3.18393 30.8877 3.02232C30.7488 2.86062 30.5171 2.80833 30.3194 2.89392Z" fill="white"/>
</svg>
