<svg width="32" height="32" viewBox="0 0 32 32" fill="none" xmlns="http://www.w3.org/2000/svg">
<path fill-rule="evenodd" clip-rule="evenodd" d="M26.3907 7.21961C27.5375 7.52769 28.4446 8.43485 28.7527 9.58161C29.3175 11.6698 29.3346 16.0001 29.3346 16.0001C29.3346 16.0001 29.3346 20.3476 28.7698 22.4186C28.4617 23.5654 27.5546 24.4725 26.4078 24.7806C24.3368 25.3454 16.0013 25.3454 16.0013 25.3454C16.0013 25.3454 7.66583 25.3454 5.5948 24.7806C4.44803 24.4725 3.54088 23.5654 3.2328 22.4186C2.66797 20.3304 2.66797 16.0001 2.66797 16.0001C2.66797 16.0001 2.66797 11.6698 3.21568 9.59873C3.52377 8.45196 4.43091 7.54482 5.57768 7.23673C7.64871 6.6719 15.9842 6.65479 15.9842 6.65479C15.9842 6.65479 24.3197 6.65479 26.3907 7.21961ZM20.2461 16.0001L13.3312 20.0052V11.995L20.2461 16.0001Z" fill="white"/>
</svg>
