<svg width="645" height="141" viewBox="0 0 645 141" fill="none" xmlns="http://www.w3.org/2000/svg">
<g clip-path="url(#clip0_905_3238)">
<g opacity="0.18">
<path opacity="0.18" d="M583.073 137.118C568.594 137.189 554.138 138.151 539.809 139.998L535.144 141.375V128.853C446.354 123.218 372.126 120.589 301.717 120.589C234.276 120.589 171.642 122.968 110.705 127.977V141.375L105.615 140.624C91.2863 138.777 76.8302 137.815 62.351 137.744C48.8072 137.75 35.2855 138.713 21.9148 140.624L15.4112 141.626L26.4392 105.687C21.1677 99.2871 16.4418 92.5483 12.3007 85.5265C9.47297 80.768 6.64511 76.1348 3.53463 71.752L0 66.8684L6.22099 65.6161C22.9567 62.2078 40.0896 60.5685 57.2611 60.7324H65.3202C66.4937 50.9041 68.8153 41.2101 72.2479 31.8062L73.2377 29.3018H76.0654C154.019 21.9263 232.369 18.3312 310.765 18.5327C391.213 18.5327 475.903 21.9137 569.783 28.8009H572.752L573.601 31.5558C576.716 41.0967 578.892 50.8587 580.104 60.7324H587.739C604.911 60.5685 622.043 62.2078 638.779 65.6161L645 66.8684C645 66.8684 635.669 80.768 632.7 85.5265C628.558 92.5483 623.832 99.2871 618.561 105.687L628.317 137.368C628.49 137.833 628.527 138.329 628.424 138.81C628.321 139.291 628.081 139.74 627.727 140.116C627.373 140.492 626.917 140.782 626.402 140.958C625.887 141.135 625.329 141.192 624.782 141.125C615.592 139.372 593.677 137.118 583.073 137.118Z" fill="#050505"/>
</g>
<path d="M99.2516 43.8281V131.484C73.291 127.384 46.7647 126.919 20.6414 130.106C19.6419 130.267 18.613 130.209 17.6448 129.936C16.6766 129.664 15.7986 129.186 15.0872 128.543C14.3759 127.901 13.8529 127.114 13.5641 126.251C13.2754 125.389 13.2297 124.477 13.4308 123.595L21.9138 87.0298C14.2702 75.5987 7.42383 63.7639 1.41296 51.5919C0.981285 50.8297 0.746119 49.9922 0.724323 49.1397C0.702528 48.2872 0.894691 47.4411 1.28697 46.6623C1.67924 45.8836 2.26173 45.1918 2.99258 44.6367C3.72343 44.0816 4.58427 43.6771 5.51304 43.4525C36.5039 38.317 68.3145 38.4445 99.2516 43.8281Z" fill="#F2A840"/>
<path d="M98.8274 108.036V129.073C87.9629 128.718 77.3295 126.193 67.7227 121.685L98.8274 108.036Z" fill="#AE6D1C"/>
<g style="mix-blend-mode:screen" opacity="0.5">
<g style="mix-blend-mode:screen" opacity="0.5">
<path d="M52.5947 45.5823C38.3278 45.0834 24.052 46.3478 10.1792 49.339C9.81104 49.4345 9.47033 49.5986 9.17986 49.8205C8.88938 50.0424 8.65585 50.3167 8.49511 50.6252C8.33437 50.9337 8.25027 51.269 8.24809 51.6088C8.24592 51.9485 8.32582 52.2847 8.4826 52.5948C15.4105 63.4891 22.621 74.3834 28.7006 85.1525C28.8056 85.3702 28.8598 85.6045 28.8598 85.8412C28.8598 86.078 28.8056 86.3122 28.7006 86.5299L20.7831 123.095C20.7172 123.415 20.7351 123.744 20.8353 124.057C20.9355 124.37 21.1155 124.659 21.3612 124.9C21.607 125.142 21.9121 125.331 22.2531 125.452C22.594 125.573 22.9618 125.624 23.3281 125.599L60.2297 122.97C60.5585 122.954 60.8804 122.88 61.1753 122.75C61.4701 122.62 61.7318 122.438 61.9439 122.215C62.156 121.992 62.3139 121.732 62.4082 121.453C62.5025 121.174 62.5311 120.88 62.4919 120.59L55.2811 85.8412V47.711C55.263 47.4149 55.1792 47.1248 55.0343 46.8574C54.8894 46.59 54.6865 46.3506 54.4369 46.1528C54.1874 45.9551 53.8961 45.8029 53.58 45.705C53.2639 45.6071 52.9291 45.5654 52.5947 45.5823Z" fill="url(#paint0_linear_905_3238)"/>
</g>
</g>
<path d="M545.748 43.8276V131.483C570.072 127.718 594.882 127.085 619.41 129.605C621 129.751 622.606 129.564 624.099 129.058C625.592 128.553 626.93 127.743 628.004 126.694C629.078 125.646 629.858 124.388 630.28 123.022C630.703 121.657 630.757 120.223 630.438 118.836L623.086 87.0293C630.097 76.8261 636.286 66.1976 641.607 55.2229C642.261 54.0211 642.601 52.7043 642.602 51.3703C642.603 50.0362 642.266 48.7192 641.614 47.5165C640.962 46.3139 640.013 45.2565 638.837 44.4228C637.661 43.5892 636.289 43.0006 634.821 42.7007C605.281 38.5024 575.141 38.8837 545.748 43.8276Z" fill="#F2A840"/>
<path d="M546.172 108.036V129.073C557.036 128.718 567.67 126.193 577.277 121.685L546.172 108.036Z" fill="#AE6D1C"/>
<g style="mix-blend-mode:screen" opacity="0.5">
<g style="mix-blend-mode:screen" opacity="0.5">
<path d="M590.143 45.7053C604.371 44.898 618.656 45.9101 632.558 48.7106C633.255 48.8843 633.901 49.1913 634.45 49.6102C634.998 50.029 635.436 50.5494 635.733 51.1346C636.03 51.7197 636.177 52.3555 636.166 52.9969C636.155 53.6382 635.985 54.2696 635.669 54.8464L616.44 85.7763L624.075 120.463C624.212 121.098 624.179 121.752 623.979 122.374C623.778 122.995 623.416 123.567 622.921 124.041C622.426 124.516 621.812 124.882 621.128 125.109C620.445 125.335 619.711 125.417 618.985 125.347L582.508 122.717L590.143 45.7053Z" fill="url(#paint1_linear_905_3238)"/>
</g>
</g>
<path d="M66.5934 20.9119C59.2215 52.5941 59.2215 85.2751 66.5934 116.957C67.0416 119.017 68.3573 120.849 70.2739 122.081C72.1905 123.314 74.5644 123.854 76.9145 123.594C245.446 105.186 408.605 111.072 568.936 123.594C571.178 123.765 573.414 123.213 575.232 122.04C577.051 120.866 578.33 119.15 578.833 117.208C586.82 84.4432 586.82 50.5459 578.833 17.7814C578.395 16.0558 577.352 14.4971 575.854 13.3277C574.356 12.1582 572.479 11.438 570.491 11.2699C407.138 -4.19511 242.389 -4.19511 79.0354 11.2699C76.0815 11.5175 73.2902 12.582 71.0572 14.3125C68.8243 16.0429 67.2627 18.3517 66.5934 20.9119Z" fill="url(#paint2_radial_905_3238)"/>
<path d="M117.208 27.7984C118.339 30.0524 114.804 33.3082 109.29 35.0613C103.776 36.8144 98.2622 36.3135 97.1311 34.0595C96 31.8055 99.3933 28.5497 104.907 26.7966C110.421 25.0435 115.935 25.5444 117.208 27.7984Z" fill="#FCFBFC"/>
<path d="M94.1629 33.4349C95.1526 35.3132 94.163 37.442 90.9111 38.3186C89.7115 38.765 88.3723 38.8214 87.1303 38.4776C85.8884 38.1339 84.8238 37.4122 84.1247 36.4403C83.135 34.562 84.1246 32.4332 87.3765 31.5566C88.576 31.1102 89.9153 31.0538 91.1572 31.3976C92.3992 31.7413 93.4638 32.463 94.1629 33.4349Z" fill="#FCFBFC"/>
</g>
<defs>
<linearGradient id="paint0_linear_905_3238" x1="17.861" y1="96.702" x2="71.7554" y2="83.0294" gradientUnits="userSpaceOnUse">
<stop stop-color="#F2A840"/>
<stop offset="1" stop-color="#F1B972" stop-opacity="0"/>
</linearGradient>
<linearGradient id="paint1_linear_905_3238" x1="592.014" y1="96.5378" x2="645.367" y2="83.1203" gradientUnits="userSpaceOnUse">
<stop stop-color="#F1B972" stop-opacity="0"/>
<stop offset="1" stop-color="#F2A840"/>
</linearGradient>
<radialGradient id="paint2_radial_905_3238" cx="0" cy="0" r="1" gradientUnits="userSpaceOnUse" gradientTransform="translate(322.944 61.6646) rotate(90) scale(61.9934 261.88)">
<stop stop-color="#F2A840"/>
<stop stop-color="#A4D64B"/>
<stop offset="0.0001" stop-color="#FFC375"/>
<stop offset="1" stop-color="#E79734"/>
</radialGradient>
<clipPath id="clip0_905_3238">
<rect width="645" height="141" fill="white"/>
</clipPath>
</defs>
</svg>
