<svg width="676" height="58" viewBox="0 0 676 58" fill="none" xmlns="http://www.w3.org/2000/svg">
<path d="M0.84 53.052C0.84 55.656 2.52 56.664 5.04 57C8.064 57.42 11.088 57.672 14.112 57.672C16.968 57.672 19.824 57.42 22.764 57C24.444 56.748 26.124 55.572 26.124 52.8C26.124 49.02 22.512 48.6 22.764 46.08L24.948 24.744C25.032 23.988 25.2 23.568 25.284 23.568C25.452 23.568 25.704 23.988 25.872 24.66L32.172 48.684C33.516 53.892 35.952 56.58 40.404 57H42.84C47.292 56.58 49.728 53.892 51.072 48.684L57.372 24.66C57.54 23.988 57.792 23.568 57.96 23.568C58.044 23.568 58.212 23.988 58.296 24.744L60.48 46.08C60.732 48.6 57.12 49.02 57.12 52.8C57.12 55.572 58.8 56.748 60.48 57C63.42 57.42 66.276 57.672 69.132 57.672C72.156 57.672 75.18 57.42 78.204 57C80.724 56.664 82.404 55.656 82.404 53.052C82.404 49.44 78.372 49.02 78.12 46.668L74.34 13.656C73.92 9.96 78.624 9.036 78.624 5.004C78.624 2.652 76.776 0.719999 72.492 0.719999H55.944C52.584 0.719999 49.812 4.248 48.216 11.052L42.252 35.916C42.084 36.672 41.916 37.008 41.664 37.008C41.496 37.008 41.244 36.672 41.076 35.916L35.028 11.052C33.348 4.248 30.66 0.719999 27.3 0.719999H10.752C6.468 0.719999 4.62 2.652 4.62 5.004C4.62 9.036 9.324 9.96 8.904 13.656L5.124 46.668C4.872 49.02 0.84 49.44 0.84 53.052ZM114.717 23.736C114.465 24.072 114.297 24.24 114.045 24.24C113.793 24.24 113.541 24.072 113.373 23.736L106.737 11.052C105.645 8.952 102.285 0.719999 93.6331 0.719999H86.9971C84.3091 0.719999 81.6211 2.148 81.6211 4.92C81.6211 8.7 84.8131 8.952 86.3251 11.64L102.873 40.788V46.668C102.873 49.02 98.5891 49.44 98.5891 53.052C98.5891 55.656 100.269 56.664 102.789 57C105.981 57.42 109.089 57.672 112.029 57.672C114.969 57.672 117.825 57.42 120.597 57C123.117 56.58 124.797 55.656 124.797 53.052C124.797 49.44 120.513 49.02 120.513 46.668V36.588L134.457 11.64C135.885 9.036 139.749 8.7 139.749 4.92C139.749 0.467997 133.869 0.299999 130.341 0.299999C130.089 0.299999 129.837 0.299999 129.585 0.299999C129.333 0.299999 129.081 0.299999 128.829 0.299999C125.301 0.299999 119.169 0.467997 119.169 4.668C119.169 8.28 123.201 8.616 121.857 11.052L114.717 23.736ZM161.621 53.052C161.621 55.656 163.301 56.664 165.821 57C168.845 57.42 171.869 57.672 174.893 57.672C177.749 57.672 180.605 57.42 183.545 57C185.225 56.748 186.905 55.572 186.905 52.8C186.905 49.02 183.293 48.6 183.545 46.08L185.729 24.744C185.813 23.988 185.981 23.568 186.065 23.568C186.233 23.568 186.485 23.988 186.653 24.66L192.953 48.684C194.297 53.892 196.733 56.58 201.185 57H203.621C208.073 56.58 210.509 53.892 211.853 48.684L218.153 24.66C218.321 23.988 218.573 23.568 218.741 23.568C218.825 23.568 218.993 23.988 219.077 24.744L221.261 46.08C221.513 48.6 217.901 49.02 217.901 52.8C217.901 55.572 219.581 56.748 221.261 57C224.201 57.42 227.057 57.672 229.913 57.672C232.937 57.672 235.961 57.42 238.985 57C241.505 56.664 243.185 55.656 243.185 53.052C243.185 49.44 239.153 49.02 238.901 46.668L235.121 13.656C234.701 9.96 239.405 9.036 239.405 5.004C239.405 2.652 237.557 0.719999 233.273 0.719999H216.725C213.365 0.719999 210.593 4.248 208.997 11.052L203.033 35.916C202.865 36.672 202.697 37.008 202.445 37.008C202.277 37.008 202.025 36.672 201.857 35.916L195.809 11.052C194.129 4.248 191.441 0.719999 188.081 0.719999H171.533C167.249 0.719999 165.401 2.652 165.401 5.004C165.401 9.036 170.105 9.96 169.685 13.656L165.905 46.668C165.653 49.02 161.621 49.44 161.621 53.052ZM244.799 5.004C244.799 9.036 249.083 9.96 249.083 13.656V47.256C249.083 49.44 244.799 49.86 244.799 53.304C244.799 55.74 246.395 57 248.999 57H286.799C292.259 57 295.115 53.472 295.115 49.356V47.088C295.115 42.804 293.183 40.956 290.831 40.956C286.799 40.956 285.875 45.24 282.179 45.24H269.663C267.983 45.24 267.563 43.98 267.563 42.468V35.16C267.563 34.572 267.899 34.236 268.487 34.236H274.787C277.139 34.236 277.559 38.52 281.171 38.52C283.775 38.52 284.867 36.84 285.119 34.32C285.455 31.296 285.455 26.256 285.119 24.072C284.699 21.552 283.775 19.872 281.171 19.872C277.559 19.872 277.139 24.156 274.787 24.156H268.487C267.899 24.156 267.563 23.82 267.563 23.232V15C267.563 13.068 267.899 12.48 269.243 12.48H280.499C284.195 12.48 285.119 16.764 289.151 16.764C291.503 16.764 293.435 14.916 293.435 10.632V8.364C293.435 4.248 290.579 0.719999 285.119 0.719999H250.931C246.647 0.719999 244.799 2.652 244.799 5.004ZM299.843 15.84C303.875 15.84 304.799 12.48 308.495 12.48H314.711C315.299 12.48 315.635 12.816 315.635 13.404V46.668C315.635 49.02 311.351 49.44 311.351 53.052C311.351 55.656 313.031 56.664 315.551 57C318.743 57.42 321.851 57.672 324.791 57.672C327.731 57.672 330.587 57.42 333.359 57C335.879 56.58 337.559 55.656 337.559 53.052C337.559 49.44 333.275 49.02 333.275 46.668V13.404C333.275 12.816 333.611 12.48 334.199 12.48H340.415C344.111 12.48 345.035 15.84 349.067 15.84C351.419 15.84 353.351 13.992 353.351 9.708V8.364C353.351 4.248 350.495 0.719999 345.035 0.719999H303.875C298.415 0.719999 295.559 4.248 295.559 8.364V9.708C295.559 13.992 297.491 15.84 299.843 15.84ZM362.495 46.164C362.663 45.66 363.167 45.324 363.755 45.324H381.479C382.067 45.324 382.571 45.66 382.739 46.164L382.907 46.668C383.663 48.768 386.435 57 394.331 57H402.227C404.915 57 407.603 55.572 407.603 52.8C407.603 49.02 403.907 48.6 402.899 46.08L387.107 7.356C384.923 1.98 382.571 0.719999 379.295 0.719999H372.491C367.367 0.719999 365.267 3.576 363.251 9.036L349.727 46.08C348.803 48.6 345.023 49.02 345.023 52.8C345.023 57.252 350.399 57.42 353.927 57.42C354.095 57.42 354.347 57.42 354.599 57.42C355.103 57.42 355.691 57.42 356.279 57.42C359.891 57.42 365.015 57.084 365.015 53.052C365.015 49.44 361.487 49.02 362.327 46.668L362.495 46.164ZM367.451 34.824C366.863 34.824 366.695 34.404 366.863 33.9L371.735 20.208C371.903 19.872 372.071 19.704 372.239 19.704C372.407 19.704 372.575 19.956 372.659 20.208L377.951 33.984C378.119 34.488 377.951 34.824 377.363 34.824H367.451ZM433.653 13.656V46.668C433.653 49.02 429.369 49.44 429.369 53.052C429.369 55.656 431.049 56.664 433.569 57C436.761 57.42 440.037 57.672 443.229 57.672C446.421 57.672 449.445 57.42 452.217 57C454.737 56.58 456.417 55.656 456.417 53.052C456.417 49.44 452.133 49.02 452.133 46.668V35.832C452.133 35.244 452.469 34.908 453.057 34.908H461.037C463.389 34.908 463.809 39.192 467.421 39.192C470.025 39.192 471.117 37.512 471.369 34.992C471.705 31.968 471.705 26.928 471.369 24.744C470.949 22.224 470.025 20.544 467.421 20.544C463.809 20.544 463.389 24.828 461.037 24.828H453.057C452.469 24.828 452.133 24.492 452.133 23.904V15.336C452.133 13.74 452.637 12.48 453.813 12.48H466.749C470.445 12.48 471.369 15.504 475.401 15.504C477.753 15.504 479.685 14.076 479.685 9.792V8.364C479.685 4.248 476.829 0.719999 471.369 0.719999H435.501C431.217 0.719999 429.369 2.652 429.369 5.004C429.369 9.036 433.653 9.96 433.653 13.656ZM490.054 46.164C490.222 45.66 490.726 45.324 491.314 45.324H509.038C509.626 45.324 510.13 45.66 510.298 46.164L510.466 46.668C511.222 48.768 513.994 57 521.89 57H529.786C532.474 57 535.162 55.572 535.162 52.8C535.162 49.02 531.466 48.6 530.458 46.08L514.666 7.356C512.482 1.98 510.13 0.719999 506.854 0.719999H500.05C494.926 0.719999 492.826 3.576 490.81 9.036L477.286 46.08C476.362 48.6 472.582 49.02 472.582 52.8C472.582 57.252 477.958 57.42 481.486 57.42C481.654 57.42 481.906 57.42 482.158 57.42C482.662 57.42 483.25 57.42 483.838 57.42C487.45 57.42 492.574 57.084 492.574 53.052C492.574 49.44 489.046 49.02 489.886 46.668L490.054 46.164ZM495.01 34.824C494.422 34.824 494.254 34.404 494.422 33.9L499.294 20.208C499.462 19.872 499.63 19.704 499.798 19.704C499.966 19.704 500.134 19.956 500.218 20.208L505.51 33.984C505.678 34.488 505.51 34.824 504.922 34.824H495.01ZM540.212 13.656V47.256C540.212 49.44 535.928 49.86 535.928 53.304C535.928 55.74 537.524 57 540.128 57H557.852C559.532 56.748 561.212 55.572 561.212 52.884C561.212 49.02 557.852 48.6 557.852 46.08V40.284C557.852 39.696 558.188 39.36 558.776 39.36H560.456C561.464 39.36 562.052 39.948 562.892 41.208L569.696 50.616C573.728 56.16 575.24 57.84 581.288 57.84C587.588 57.84 592.544 54.732 592.544 52.8C592.544 49.608 589.772 49.524 585.572 44.736L579.188 37.596C578.684 37.008 578.852 36.336 579.524 36C585.32 33.06 589.184 28.02 589.184 20.376C589.184 6.6 577.088 0.719999 563.396 0.719999H542.06C537.776 0.719999 535.928 2.652 535.928 5.004C535.928 9.036 540.212 9.96 540.212 13.656ZM557.852 26.928V16.176C557.852 13.404 558.608 10.464 561.968 10.464C565.916 10.464 569.444 13.572 569.444 20.124C569.444 26.844 565.916 29.616 561.968 29.616H561.296C559.112 29.616 557.852 28.692 557.852 26.928ZM593.844 53.052C593.844 55.656 595.524 56.664 598.044 57C601.068 57.42 604.092 57.672 607.116 57.672C609.972 57.672 612.828 57.42 615.768 57C617.448 56.748 619.128 55.572 619.128 52.8C619.128 49.02 615.516 48.6 615.768 46.08L617.952 24.744C618.036 23.988 618.204 23.568 618.288 23.568C618.456 23.568 618.708 23.988 618.876 24.66L625.176 48.684C626.52 53.892 628.956 56.58 633.408 57H635.844C640.296 56.58 642.732 53.892 644.076 48.684L650.376 24.66C650.544 23.988 650.796 23.568 650.964 23.568C651.048 23.568 651.216 23.988 651.3 24.744L653.484 46.08C653.736 48.6 650.124 49.02 650.124 52.8C650.124 55.572 651.804 56.748 653.484 57C656.424 57.42 659.28 57.672 662.136 57.672C665.16 57.672 668.184 57.42 671.208 57C673.728 56.664 675.408 55.656 675.408 53.052C675.408 49.44 671.376 49.02 671.124 46.668L667.344 13.656C666.924 9.96 671.628 9.036 671.628 5.004C671.628 2.652 669.78 0.719999 665.496 0.719999H648.948C645.588 0.719999 642.816 4.248 641.22 11.052L635.256 35.916C635.088 36.672 634.92 37.008 634.668 37.008C634.5 37.008 634.248 36.672 634.08 35.916L628.032 11.052C626.352 4.248 623.664 0.719999 620.304 0.719999H603.756C599.472 0.719999 597.624 2.652 597.624 5.004C597.624 9.036 602.328 9.96 601.908 13.656L598.128 46.668C597.876 49.02 593.844 49.44 593.844 53.052Z" fill="url(#paint0_linear_905_3319)"/>
<defs>
<linearGradient id="paint0_linear_905_3319" x1="338" y1="10.1017" x2="338" y2="48.1017" gradientUnits="userSpaceOnUse">
<stop stop-color="#0071BC"/>
<stop offset="1" stop-color="#FF7676"/>
</linearGradient>
</defs>
</svg>
