<svg width="1440" height="554" viewBox="0 0 1440 554" fill="none" xmlns="http://www.w3.org/2000/svg">
<g style="mix-blend-mode:soft-light" opacity="0.3">
<rect width="64.916" height="854.178" transform="matrix(0.760146 -0.649752 0.646656 0.762782 220.887 -171.821)" fill="url(#paint0_linear_827_3599)"/>
</g>
<g style="mix-blend-mode:soft-light" opacity="0.3">
<rect width="64.916" height="854.178" transform="matrix(0.760146 -0.649752 0.646656 0.762782 235.887 -213.821)" fill="url(#paint1_linear_827_3599)"/>
</g>
<g style="mix-blend-mode:soft-light" opacity="0.3">
<rect width="187.358" height="854.178" transform="matrix(0.760146 -0.649752 0.646656 0.762782 -126.113 -159.551)" fill="url(#paint2_linear_827_3599)"/>
</g>
<g style="mix-blend-mode:soft-light" opacity="0.3">
<rect width="76.7027" height="854.178" transform="matrix(0.760146 -0.649752 0.646656 0.762782 -184 -98.1624)" fill="url(#paint3_linear_827_3599)"/>
</g>
<g style="mix-blend-mode:soft-light" opacity="0.3">
<rect width="64.916" height="854.178" transform="matrix(0.760146 -0.649752 0.646656 0.762782 -145.113 -147.821)" fill="url(#paint4_linear_827_3599)"/>
</g>
<g style="mix-blend-mode:soft-light" opacity="0.3">
<rect width="64.916" height="854.178" transform="matrix(0.760146 -0.649752 0.646656 0.762782 424.068 -213.107)" fill="url(#paint5_linear_827_3599)"/>
</g>
<g style="mix-blend-mode:soft-light" opacity="0.3">
<rect width="64.916" height="854.178" transform="matrix(0.760146 -0.649752 0.646656 0.762782 896.887 -199.821)" fill="url(#paint6_linear_827_3599)"/>
</g>
<g style="mix-blend-mode:soft-light" opacity="0.3">
<rect width="64.916" height="854.178" transform="matrix(0.760146 -0.649752 0.646656 0.762782 919.887 -213.821)" fill="url(#paint7_linear_827_3599)"/>
</g>
<g style="mix-blend-mode:soft-light" opacity="0.3">
<rect width="167.483" height="854.178" transform="matrix(0.760146 -0.649752 0.646656 0.762782 638.021 -212.556)" fill="url(#paint8_linear_827_3599)"/>
</g>
<g style="mix-blend-mode:soft-light" opacity="0.3">
<rect width="16.592" height="854.178" transform="matrix(0.760147 -0.649752 0.646656 0.762782 1058.91 -321.219)" fill="url(#paint9_linear_827_3599)"/>
</g>
<defs>
<linearGradient id="paint0_linear_827_3599" x1="32.458" y1="0" x2="32.458" y2="854.178" gradientUnits="userSpaceOnUse">
<stop stop-color="white"/>
<stop offset="1" stop-color="white" stop-opacity="0"/>
</linearGradient>
<linearGradient id="paint1_linear_827_3599" x1="32.458" y1="0" x2="32.458" y2="854.178" gradientUnits="userSpaceOnUse">
<stop stop-color="white"/>
<stop offset="1" stop-color="white" stop-opacity="0"/>
</linearGradient>
<linearGradient id="paint2_linear_827_3599" x1="93.679" y1="0" x2="93.679" y2="854.178" gradientUnits="userSpaceOnUse">
<stop stop-color="white"/>
<stop offset="1" stop-color="white" stop-opacity="0"/>
</linearGradient>
<linearGradient id="paint3_linear_827_3599" x1="38.3513" y1="0" x2="38.3513" y2="854.178" gradientUnits="userSpaceOnUse">
<stop stop-color="white"/>
<stop offset="1" stop-color="white" stop-opacity="0"/>
</linearGradient>
<linearGradient id="paint4_linear_827_3599" x1="32.458" y1="0" x2="32.458" y2="854.178" gradientUnits="userSpaceOnUse">
<stop stop-color="white"/>
<stop offset="1" stop-color="white" stop-opacity="0"/>
</linearGradient>
<linearGradient id="paint5_linear_827_3599" x1="32.458" y1="0" x2="32.458" y2="854.178" gradientUnits="userSpaceOnUse">
<stop stop-color="white"/>
<stop offset="1" stop-color="white" stop-opacity="0"/>
</linearGradient>
<linearGradient id="paint6_linear_827_3599" x1="32.458" y1="0" x2="32.458" y2="854.178" gradientUnits="userSpaceOnUse">
<stop stop-color="white"/>
<stop offset="1" stop-color="white" stop-opacity="0"/>
</linearGradient>
<linearGradient id="paint7_linear_827_3599" x1="32.458" y1="0" x2="32.458" y2="854.178" gradientUnits="userSpaceOnUse">
<stop stop-color="white"/>
<stop offset="1" stop-color="white" stop-opacity="0"/>
</linearGradient>
<linearGradient id="paint8_linear_827_3599" x1="83.7415" y1="0" x2="83.7415" y2="854.178" gradientUnits="userSpaceOnUse">
<stop stop-color="white"/>
<stop offset="1" stop-color="white" stop-opacity="0"/>
</linearGradient>
<linearGradient id="paint9_linear_827_3599" x1="8.29601" y1="0" x2="8.29601" y2="854.178" gradientUnits="userSpaceOnUse">
<stop stop-color="white"/>
<stop offset="1" stop-color="white" stop-opacity="0"/>
</linearGradient>
</defs>
</svg>
