<svg width="18" height="17" viewBox="0 0 18 17" fill="none" xmlns="http://www.w3.org/2000/svg">
<path fill-rule="evenodd" clip-rule="evenodd" d="M17.1027 0.988361L0.45635 7.35886C0.365892 7.39353 0.288192 7.45466 0.233552 7.53414C0.178912 7.61362 0.149912 7.7077 0.150397 7.8039C0.150881 7.9001 0.180828 7.99389 0.236267 8.07282C0.291706 8.15176 0.370018 8.21211 0.460821 8.24588L4.51678 9.74828L6.08708 14.76C6.11086 14.8336 6.15244 14.9004 6.20821 14.9545C6.26398 15.0085 6.33225 15.0482 6.40704 15.0701C6.48183 15.092 6.56088 15.0954 6.63729 15.08C6.71371 15.0645 6.78516 15.0308 6.84541 14.9817L9.10642 13.1522C9.22166 13.0589 9.36482 13.006 9.51353 13.0019C9.66225 12.9978 9.80815 13.0427 9.92845 13.1295L14.0079 16.0678C14.0725 16.1143 14.1478 16.1441 14.227 16.1544C14.3061 16.1647 14.3867 16.1551 14.4612 16.1267C14.5357 16.0982 14.6018 16.0516 14.6535 15.9913C14.7052 15.9309 14.7409 15.8587 14.7573 15.7812L17.7425 1.52723C17.76 1.44379 17.7546 1.35721 17.7267 1.27661C17.6988 1.196 17.6495 1.12435 17.584 1.06919C17.5185 1.01403 17.4392 0.977416 17.3545 0.963192C17.2698 0.948967 17.1828 0.957662 17.1027 0.988361ZM13.928 4.32191L7.38579 10.3548C7.15679 10.5671 7.00906 10.8515 6.96779 11.1598L6.74426 12.7985C6.73774 12.8447 6.71547 12.8872 6.68115 12.919C6.64684 12.9508 6.60257 12.9699 6.55573 12.9732C6.50889 12.9765 6.46233 12.9638 6.42382 12.9372C6.38531 12.9105 6.35719 12.8716 6.34414 12.8268L5.48523 9.8392C5.43779 9.67336 5.44618 9.49671 5.50911 9.33602C5.57204 9.17534 5.68608 9.03941 5.83393 8.94885L13.7614 4.10514C13.7906 4.08729 13.8254 4.08084 13.8591 4.08703C13.8928 4.09323 13.9229 4.11163 13.9437 4.13867C13.9645 4.1657 13.9744 4.19943 13.9715 4.2333C13.9686 4.26717 13.9531 4.29875 13.928 4.32191Z" fill="white"/>
</svg>
