<svg width="20" height="17" viewBox="0 0 20 17" fill="none" xmlns="http://www.w3.org/2000/svg">
<path d="M18.8531 2.7028C18.5541 2.83237 18.2468 2.94172 17.9327 3.0305C18.3045 2.61961 18.588 2.13613 18.7611 1.60707C18.7999 1.48848 18.7597 1.35867 18.6599 1.28111C18.5603 1.20349 18.4218 1.1942 18.3121 1.25772C17.6452 1.64426 16.9256 1.92205 16.171 2.08448C15.411 1.35879 14.3787 0.945801 13.3115 0.945801C11.0588 0.945801 9.22615 2.73651 9.22615 4.93758C9.22615 5.11094 9.23739 5.28333 9.25961 5.45333C6.46429 5.21351 3.86553 3.871 2.08096 1.73202C2.01737 1.65578 1.91939 1.61469 1.81908 1.62254C1.71871 1.63022 1.62853 1.68553 1.57782 1.77053C1.21588 2.37739 1.02453 3.07147 1.02453 3.77766C1.02453 4.73951 1.37598 5.65212 1.9968 6.36521C1.80803 6.30133 1.62485 6.22149 1.45001 6.12665C1.35615 6.07561 1.2416 6.07639 1.14835 6.12863C1.05504 6.18088 0.996536 6.27697 0.99408 6.38201C0.993651 6.3997 0.993651 6.4174 0.993651 6.43533C0.993651 7.87106 1.78446 9.16366 2.9935 9.86818C2.88963 9.85804 2.78583 9.84335 2.68269 9.82409C2.57637 9.80424 2.46704 9.84065 2.39533 9.91989C2.32351 9.99907 2.29975 10.1094 2.33284 10.2102C2.78036 11.5755 3.93256 12.5797 5.32547 12.8858C4.1702 13.5929 2.84906 13.9632 1.46217 13.9632C1.17278 13.9632 0.881739 13.9466 0.596897 13.9136C0.455396 13.8972 0.320096 13.9789 0.271906 14.1103C0.223716 14.2419 0.274791 14.3885 0.395174 14.4639C2.17685 15.5802 4.23699 16.1702 6.35274 16.1702C10.5121 16.1702 13.114 14.2537 14.5643 12.6459C16.3728 10.6412 17.41 7.98767 17.41 5.36581C17.41 5.25628 17.4083 5.14567 17.4049 5.03542C18.1184 4.51013 18.7327 3.87442 19.2326 3.14375C19.3085 3.03278 19.3003 2.88612 19.2123 2.78396C19.1245 2.68175 18.9781 2.6487 18.8531 2.7028Z" fill="white"/>
</svg>
