<svg width="28" height="29" viewBox="0 0 28 29" fill="none" xmlns="http://www.w3.org/2000/svg">
<path d="M9.03339 24.7605C8.99907 24.7605 8.95332 24.7834 8.919 24.7834C6.69997 23.6853 4.89272 21.8666 3.7832 19.6476C3.7832 19.6133 3.80608 19.5675 3.80608 19.5332C5.20155 19.945 6.64278 20.2538 8.07257 20.494C8.32421 21.9352 8.62161 23.365 9.03339 24.7605Z" fill="white"/>
<path d="M24.2368 19.659C23.1044 21.9352 21.2171 23.7768 18.918 24.8863C19.3526 23.4337 19.7187 21.9696 19.9589 20.494C21.4001 20.2538 22.8184 19.945 24.2139 19.5332C24.2025 19.579 24.2368 19.6247 24.2368 19.659Z" fill="white"/>
<path d="M24.3283 9.66276C22.8871 9.2281 21.4344 8.87352 19.9589 8.62187C19.7187 7.14633 19.3641 5.68223 18.918 4.25244C21.2857 5.38483 23.1959 7.29503 24.3283 9.66276Z" fill="white"/>
<path d="M9.03114 4.37709C8.61936 5.77256 8.32197 7.19091 8.08176 8.63214C6.60622 8.8609 5.14212 9.22693 3.68945 9.66159C4.79897 7.36249 6.64054 5.47517 8.91676 4.34277C8.95108 4.34277 8.99683 4.37709 9.03114 4.37709Z" fill="white"/>
<path d="M18.0015 8.37958C15.3478 8.08218 12.6713 8.08218 10.0176 8.37958C10.3035 6.81253 10.6696 5.24548 11.1843 3.73562C11.2072 3.64412 11.1957 3.57549 11.2072 3.48398C12.1108 3.26665 13.0373 3.12939 14.0095 3.12939C14.9704 3.12939 15.9083 3.26665 16.8005 3.48398C16.8119 3.57549 16.8119 3.64412 16.8348 3.73562C17.3495 5.25692 17.7156 6.81253 18.0015 8.37958Z" fill="white"/>
<path d="M7.81854 18.5616C6.24006 18.2756 4.68445 17.9096 3.17459 17.3949C3.08308 17.372 3.01445 17.3834 2.92295 17.372C2.70562 16.4684 2.56836 15.5419 2.56836 14.5696C2.56836 13.6088 2.70562 12.6708 2.92295 11.7787C3.01445 11.7672 3.08308 11.7672 3.17459 11.7443C4.69588 11.2411 6.24006 10.8636 7.81854 10.5776C7.53258 13.2313 7.53258 15.9079 7.81854 18.5616Z" fill="white"/>
<path d="M25.4494 14.5696C25.4494 15.5419 25.3121 16.4684 25.0948 17.372C25.0033 17.3834 24.9347 17.372 24.8432 17.3949C23.3219 17.8982 21.7663 18.2756 20.1992 18.5616C20.4966 15.9079 20.4966 13.2313 20.1992 10.5776C21.7663 10.8636 23.3333 11.2296 24.8432 11.7443C24.9347 11.7672 25.0033 11.7787 25.0948 11.7787C25.3121 12.6823 25.4494 13.6088 25.4494 14.5696Z" fill="white"/>
<path d="M18.0015 20.7568C17.7156 22.3353 17.3495 23.8909 16.8348 25.4008C16.8119 25.4923 16.8119 25.5609 16.8005 25.6524C15.9083 25.8698 14.9704 26.007 14.0095 26.007C13.0373 26.007 12.1108 25.8698 11.2072 25.6524C11.1957 25.5609 11.2072 25.4923 11.1843 25.4008C10.681 23.8795 10.3035 22.3353 10.0176 20.7568C11.3444 20.9055 12.6713 21.0085 14.0095 21.0085C15.3478 21.0085 16.6861 20.9055 18.0015 20.7568Z" fill="white"/>
<path d="M18.3116 18.8736C15.4507 19.2345 12.5632 19.2345 9.70235 18.8736C9.3414 16.0128 9.3414 13.1252 9.70235 10.2644C12.5632 9.90342 15.4507 9.90342 18.3116 10.2644C18.6725 13.1252 18.6725 16.0128 18.3116 18.8736Z" fill="white"/>
</svg>
