<svg width="94" height="94" viewBox="0 0 94 94" fill="none" xmlns="http://www.w3.org/2000/svg">
<path d="M47 94C72.9574 94 94 72.9574 94 47C94 21.0426 72.9574 0 47 0C21.0426 0 0 21.0426 0 47C0 72.9574 21.0426 94 47 94Z" fill="#18446E"/>
<path d="M47 54C55.8366 54 63 46.8366 63 38C63 29.1634 55.8366 22 47 22C38.1634 22 31 29.1634 31 38C31 46.8366 38.1634 54 47 54Z" fill="#FF1A1A"/>
<path d="M52.4285 45.2386L47 39.8101L41.5715 45.2386L39.762 43.4291L45.1905 38.0005L39.762 32.572L41.5715 30.7625L47 36.191L52.4285 30.7625L54.238 32.572L48.8095 38.0005L54.238 43.4291L52.4285 45.2386Z" fill="white"/>
<path d="M55.6663 65H38.333C37.2284 65 36.333 65.8954 36.333 67C36.333 68.1046 37.2284 69 38.333 69H55.6663C56.7709 69 57.6663 68.1046 57.6663 67C57.6663 65.8954 56.7709 65 55.6663 65Z" fill="#F5CB5D"/>
<path d="M61.6663 73H32.333C31.2284 73 30.333 73.8954 30.333 75C30.333 76.1046 31.2284 77 32.333 77H61.6663C62.7709 77 63.6663 76.1046 63.6663 75C63.6663 73.8954 62.7709 73 61.6663 73Z" fill="#F5CB5D"/>
</svg>
