<svg width="482" height="416" viewBox="0 0 482 416" fill="none" xmlns="http://www.w3.org/2000/svg">
<path d="M481.1 321.7V86.2001C481.1 81.8 481.3 77.5001 480.8 73.3001C480.5 70.0001 479.7 66.8 478.3 63.6001C470 45.8001 450.4 36.4001 433.3 29.2001C413.8 21.0001 393.3 15.3001 372.6 11.3001C348.3 6.60005 323.6 3.20005 298.8 1.70005C245 -1.79995 189.8 0.100055 136.4 8.00005C109.9 11.9001 83.8 17.2001 58.5 26.3001C42.8 32.0001 27.8 38.8001 15.3 50.3001C8.39995 56.7001 3.79995 64.4001 1.19995 73.3001V297.9C1.19995 314.2 -2.70005 335.8 3.99995 351.1C9.79995 364.3 22.6 373.4 34.9 380.1C58.3 392.8 83.8 399.2 109.6 404.3C128.2 407.9 147 410.3 165.8 412.2C176.5 413.3 187.3 413.9 198.1 414.3C215.2 414.9 232.4 415.9 249.5 415.3C273.9 414.4 298.3 413.3 322.5 410.6C350.6 407.5 378.5 403.1 405.6 395.2C425 389.6 444 383 460.5 370.8C467.9 365.3 474.5 358.4 478.4 350C482.6 340.9 481.1 331.3 481.1 321.7ZM470.2 338.4C462.4 361.3 435.3 371.3 414.8 379.2C404.5 383.2 396.1 381.2 388.6 373.2C381.5 365.7 372.4 362.2 362.2 362.2C281.3 362.1 200.3 362.1 119.4 362.2C109.9 362.2 101.4 365.5 94.6 372.3C90.6 376.3 86.5 380 81.1 382.2C69.7 386.8 49.6 373.4 39.9 368C30.4 362.7 21.9 355.9 15.4 347.2C11.6 342.1 10.9 336 9.09995 330.2V82.2001C12.7 64.9001 24.8 54.7001 39.3 46.7001C54.4 38.3001 70.5 32.6001 87.1 28.3001C111.4 21.9001 136 17.8001 161 15.0001C190.2 11.8001 219.5 10.3001 248.9 10.2001C256.2 10.2001 263.5 10.6001 270.8 11.0001C283.2 11.5001 295.6 12.1001 308.1 13.1001C329 14.7001 349.6 17.3001 370.1 21.3001C395.3 26.3001 420 32.7001 442.6 45.4001C450.5 49.9001 457.9 55.1001 464 62.2001C475.9 76.2001 473.3 94.3001 473.3 111.4V298.5C473.1 311.8 474.5 325.7 470.2 338.4Z" fill="#FBC0D0"/>
</svg>
