g<svg width="270" height="57" viewBox="0 0 270 57" fill="none" xmlns="http://www.w3.org/2000/svg">
<rect x="0.910828" width="269.045" height="57" rx="10" fill="url(#paint0_linear_302_5149)"/>
<g style="mix-blend-mode:color-dodge">
<path d="M11.3068 17.1284C12.8765 15.06 13.6266 12.2778 12.982 10.9143C12.3375 9.55068 10.5425 10.1221 8.97278 12.1904C7.40306 14.2588 6.65304 17.041 7.29755 18.4045C7.94207 19.7681 9.73704 19.1967 11.3068 17.1284Z" fill="white"/>
</g>
<g style="mix-blend-mode:color-dodge">
<path d="M6.0824 25.1461C6.96063 25.1461 7.67258 23.9574 7.67258 22.491C7.67258 21.0247 6.96063 19.8359 6.0824 19.8359C5.20417 19.8359 4.49222 21.0247 4.49222 22.491C4.49222 23.9574 5.20417 25.1461 6.0824 25.1461Z" fill="white"/>
</g>
<g style="mix-blend-mode:color-dodge" opacity="0.5">
<path d="M259.25 46.22C261.049 44.7627 262.14 42.3143 261.685 40.7515C261.231 39.1886 259.405 39.1031 257.606 40.5605C255.807 42.0178 254.716 44.4661 255.17 46.029C255.624 47.5918 257.451 47.6774 259.25 46.22Z" fill="white"/>
</g>
<g style="mix-blend-mode:color-dodge" opacity="0.5">
<path d="M263.398 39.9332C264.277 39.9332 264.989 38.7444 264.989 37.2781C264.989 35.8117 264.277 34.623 263.398 34.623C262.52 34.623 261.808 35.8117 261.808 37.2781C261.808 38.7444 262.52 39.9332 263.398 39.9332Z" fill="white"/>
</g>
<path d="M73.3863 36.4668L75.4503 18.7068H78.8583L82.9383 32.3148L86.9943 18.7068H90.3783L92.4663 36.4668H89.0343L87.4983 23.3868L88.0503 23.4348L84.5703 36.4668H81.2343L77.7063 23.4348L78.3063 23.4108L76.8183 36.4668H73.3863ZM98.4491 42.1548L99.8411 36.4668C99.1211 36.4668 98.4891 36.3308 97.9451 36.0588C97.4011 35.7868 96.9451 35.4028 96.5771 34.9068C96.2251 34.3948 95.9531 33.7628 95.7611 33.0108L93.3371 23.5788H97.0331L99.0731 32.2908C99.1531 32.5948 99.2571 32.8348 99.3851 33.0108C99.5131 33.1868 99.6491 33.3148 99.7931 33.3948C99.9371 33.4588 100.065 33.5068 100.177 33.5388C100.305 33.5548 100.401 33.5628 100.465 33.5628L102.793 23.5788H106.393L102.553 39.7788L101.401 42.1548H98.4491ZM108.081 36.4668V23.5788H110.817L111.633 25.5468C112.097 24.9548 112.617 24.4508 113.193 24.0348C113.785 23.6188 114.481 23.4108 115.281 23.4108C115.457 23.4108 115.633 23.4188 115.809 23.4348C116.001 23.4508 116.177 23.4828 116.337 23.5308V27.1788C116.097 27.1468 115.841 27.1228 115.569 27.1068C115.313 27.0748 115.065 27.0588 114.825 27.0588C114.361 27.0588 113.937 27.1148 113.553 27.2268C113.185 27.3228 112.841 27.4748 112.521 27.6828C112.217 27.8748 111.921 28.1308 111.633 28.4508V36.4668H108.081ZM123.36 36.4668C122.368 36.4668 121.56 36.3228 120.936 36.0348C120.328 35.7468 119.888 35.2668 119.616 34.5948C119.344 33.9228 119.224 33.0188 119.256 31.8828L119.376 26.4348H117.36V24.1548L119.496 23.5788L119.976 19.9788H122.784V23.5788H125.808V26.4348H122.784V31.8588C122.784 32.2108 122.816 32.4988 122.88 32.7228C122.944 32.9468 123.032 33.1308 123.144 33.2748C123.272 33.4028 123.416 33.4988 123.576 33.5628C123.736 33.6268 123.896 33.6668 124.056 33.6828L125.688 33.8268V36.4668H123.36ZM131.824 36.5148C130.912 36.5148 130.152 36.3708 129.544 36.0828C128.952 35.7788 128.512 35.3228 128.224 34.7148C127.936 34.0908 127.792 33.2908 127.792 32.3148V18.1548H131.344V31.7868C131.344 32.2668 131.392 32.6508 131.488 32.9388C131.584 33.2108 131.728 33.4108 131.92 33.5388C132.128 33.6668 132.384 33.7548 132.688 33.8028L133.672 33.9468V36.5148H131.824ZM140.74 36.5868C139.316 36.5868 138.18 36.4028 137.332 36.0348C136.484 35.6508 135.868 34.9788 135.484 34.0188C135.116 33.0588 134.932 31.7308 134.932 30.0348C134.932 28.2908 135.108 26.9388 135.46 25.9788C135.812 25.0188 136.404 24.3468 137.236 23.9628C138.068 23.5788 139.196 23.3868 140.62 23.3868C141.9 23.3868 142.924 23.5148 143.692 23.7708C144.46 24.0268 145.012 24.4748 145.348 25.1148C145.7 25.7548 145.876 26.6588 145.876 27.8268C145.876 28.6908 145.7 29.3788 145.348 29.8908C145.012 30.3868 144.532 30.7468 143.908 30.9708C143.284 31.1788 142.548 31.2828 141.7 31.2828H138.46C138.492 31.9388 138.588 32.4668 138.748 32.8668C138.924 33.2508 139.236 33.5308 139.684 33.7068C140.148 33.8668 140.812 33.9468 141.676 33.9468H145.444V36.0348C144.82 36.1628 144.132 36.2908 143.38 36.4188C142.644 36.5308 141.764 36.5868 140.74 36.5868ZM138.412 29.1708H141.34C141.82 29.1708 142.172 29.0748 142.396 28.8828C142.62 28.6908 142.732 28.3468 142.732 27.8508C142.732 27.3868 142.66 27.0188 142.516 26.7468C142.372 26.4588 142.148 26.2588 141.844 26.1468C141.54 26.0188 141.132 25.9548 140.62 25.9548C140.076 25.9548 139.644 26.0508 139.324 26.2428C139.004 26.4188 138.772 26.7388 138.628 27.2028C138.484 27.6668 138.412 28.3228 138.412 29.1708ZM154.562 36.4668V18.7068H158.114V26.0988H164.81V18.7068H168.386V36.4668H164.81V29.2908H158.114V36.4668H154.562ZM174.917 36.6108C173.765 36.6108 172.861 36.2748 172.205 35.6028C171.549 34.9148 171.221 33.9468 171.221 32.6988V23.5788H174.773V31.6428C174.773 32.3628 174.941 32.8508 175.277 33.1068C175.629 33.3468 176.085 33.4668 176.645 33.4668C177.093 33.4668 177.549 33.3868 178.013 33.2268C178.493 33.0508 178.917 32.8188 179.285 32.5308V23.5788H182.861V36.4668H179.909L179.285 35.1468C178.709 35.5308 178.045 35.8748 177.293 36.1788C176.541 36.4668 175.749 36.6108 174.917 36.6108ZM186.262 36.4668V26.4348H184.438V24.1548L186.262 23.5788V22.1868C186.262 21.1308 186.406 20.2988 186.694 19.6908C186.982 19.0828 187.414 18.6508 187.99 18.3948C188.582 18.1388 189.318 18.0108 190.198 18.0108C190.854 18.0108 191.462 18.0508 192.022 18.1308C192.598 18.1948 193.062 18.2908 193.414 18.4188V20.9868C193.158 20.9708 192.838 20.9548 192.454 20.9388C192.086 20.9228 191.742 20.9148 191.422 20.9148C191.022 20.9148 190.702 20.9788 190.462 21.1068C190.238 21.2348 190.07 21.4348 189.958 21.7068C189.862 21.9628 189.814 22.2908 189.814 22.6908V23.5788H197.662V26.4348H189.814V36.4668H186.262ZM195.91 36.4668V26.4348H194.086V24.1548L195.91 23.5788V22.7148C195.91 21.6268 196.054 20.7388 196.342 20.0508C196.646 19.3468 197.11 18.8348 197.734 18.5148C198.358 18.1788 199.182 18.0108 200.206 18.0108C200.766 18.0108 201.278 18.0508 201.742 18.1308C202.206 18.2108 202.582 18.2908 202.87 18.3708V20.9148H200.902C200.534 20.9148 200.246 20.9708 200.038 21.0828C199.846 21.1948 199.702 21.3708 199.606 21.6108C199.526 21.8348 199.486 22.1388 199.486 22.5228V23.5788H202.774V26.4348H199.486V36.4668H195.91Z" fill="white"/>
<defs>
<linearGradient id="paint0_linear_302_5149" x1="135.433" y1="0" x2="135.433" y2="57" gradientUnits="userSpaceOnUse">
<stop stop-color="#F5799E"/>
<stop offset="1" stop-color="#DE6585"/>
</linearGradient>
</defs>
</svg>
